<svg xmlns="http://www.w3.org/2000/svg" viewBox="0 0 1200 675" role="img" aria-label="Mulher Espiral — capa">
  <defs>
    <linearGradient id="bg" x1="0" y1="0" x2="1" y2="1">
      <stop offset="0" stop-color="#070812"/>
      <stop offset="1" stop-color="#0E0F1C"/>
    </linearGradient>
    <radialGradient id="glow" cx="55%" cy="42%" r="65%">
      <stop offset="0" stop-color="#C6A870" stop-opacity="0.32"/>
      <stop offset="60%" stop-color="#C6A870" stop-opacity="0.0"/>
      <stop offset="100%" stop-color="#C6A870" stop-opacity="0.0"/>
    </radialGradient>
    <linearGradient id="gold" x1="0" y1="0" x2="1" y2="1">
      <stop offset="0" stop-color="#F3E2BA"/>
      <stop offset="45%" stop-color="#C6A870"/>
      <stop offset="100%" stop-color="#8F6E28"/>
    </linearGradient>
    <filter id="soft" x="-20%" y="-20%" width="140%" height="140%">
      <feGaussianBlur stdDeviation="6" result="b"/>
      <feColorMatrix in="b" type="matrix" values="1 0 0 0 0  0 1 0 0 0  0 0 1 0 0  0 0 0 0.65 0" result="c"/>
      <feMerge>
        <feMergeNode in="c"/>
        <feMergeNode in="SourceGraphic"/>
      </feMerge>
    </filter>
  </defs>

  <rect width="1200" height="675" rx="28" fill="url(#bg)"/>
  <rect width="1200" height="675" rx="28" fill="url(#glow)"/>

  <g opacity="0.22">
    <circle cx="220" cy="520" r="210" fill="#C99AAA"/>
  </g>

  <g filter="url(#soft)">
    <path
      d="M640 560C440 560 360 415 360 290C360 145 475 55 610 55C735 55 830 155 830 280C830 395 745 460 640 460C545 460 470 385 470 295C470 225 526 170 600 170C670 170 725 225 725 295C725 352 682 395 625 395C575 395 538 357 538 307C538 265 570 235 612 235C650 235 680 265 680 303C680 335 655 360 623 360"
      fill="none"
      stroke="url(#gold)"
      stroke-width="18"
      stroke-linecap="round"
      opacity="0.9"
    />
  </g>

  <g>
    <text x="86" y="164" fill="#F8F5EE" font-family="Cormorant Garamond, serif" font-size="78" font-style="italic" font-weight="400">
      Mulher Espiral
    </text>
    <text x="90" y="214" fill="#C6A870" font-family="Montserrat, sans-serif" font-size="16" letter-spacing="6" text-transform="uppercase">
      Método de Reconexão e Cura
    </text>
    <text x="90" y="266" fill="#B9B4A8" font-family="DM Sans, sans-serif" font-size="18">
      Uma jornada profunda para reencontrar sua essência com leveza e verdade.
    </text>
  </g>
</svg>
